<svg width="80" height="81" viewBox="0 0 80 81" fill="none" xmlns="http://www.w3.org/2000/svg">
<path d="M34.5762 0.891357C44.1001 0.891357 52.1953 4.22469 58.862 10.8914C65.5286 17.558 68.862 25.6533 68.862 35.1771H61.2429C61.2429 27.7485 58.655 21.4463 53.4791 16.2704C48.3058 11.0971 42.0048 8.51041 34.5762 8.51041C30.1953 8.51041 26.1 9.52628 22.2905 11.558C18.481 13.5898 15.2747 16.3834 12.6715 19.939H19.3381C20.4175 19.939 21.3229 20.3034 22.0543 21.0323C22.7832 21.7637 23.1477 22.6691 23.1477 23.7485C23.1477 24.8279 22.7832 25.732 22.0543 26.4609C21.3229 27.1923 20.4175 27.558 19.3381 27.558H4.10005C3.02069 27.558 2.11656 27.1923 1.38767 26.4609C0.656242 25.732 0.290527 24.8279 0.290527 23.7485V8.51041C0.290527 7.43104 0.656242 6.52564 1.38767 5.79422C2.11656 5.06533 3.02069 4.70088 4.10005 4.70088C5.17942 4.70088 6.08481 5.06533 6.81624 5.79422C7.54513 6.52564 7.90957 7.43104 7.90957 8.51041V13.6533C11.1477 9.58977 15.1007 6.44691 19.7686 4.22469C24.434 2.00247 29.3699 0.891357 34.5762 0.891357ZM39.7191 45.6533L31.9096 37.8437C31.5286 37.4628 31.2429 37.0336 31.0524 36.5561C30.862 36.0812 30.7667 35.5898 30.7667 35.0818V19.939C30.7667 18.8596 31.1324 17.9542 31.8639 17.2228C32.5928 16.4939 33.4969 16.1295 34.5762 16.1295C35.6556 16.1295 36.561 16.4939 37.2924 17.2228C38.0213 17.9542 38.3858 18.8596 38.3858 19.939V33.6533L43.7191 38.9866L39.7191 45.6533ZM34.862 69.4628C26.735 69.4628 19.5134 67.0183 13.1972 62.1295C6.87846 57.2406 2.92545 51.3993 1.33815 44.6056C1.02069 43.4628 1.13243 42.3834 1.67338 41.3675C2.2118 40.3517 3.05243 39.7168 4.19529 39.4628C5.27465 39.2088 6.24227 39.4463 7.09815 40.1752C7.95656 40.9066 8.5445 41.812 8.86196 42.8914C10.1953 47.5898 12.8137 51.6368 16.7172 55.0323C20.6232 58.4304 25.1477 60.5739 30.2905 61.4628L34.862 69.4628ZM56.1953 75.1771C55.4334 74.8596 54.7197 74.5269 54.0543 74.179C53.3864 73.8285 52.7032 73.3993 52.0048 72.8914L47.9096 74.1295C47.4651 74.2564 47.0524 74.2399 46.6715 74.0799C46.2905 73.9225 45.9731 73.6533 45.7191 73.2723L43.4334 69.4628C43.1794 69.0818 43.1159 68.6691 43.2429 68.2247C43.3699 67.7802 43.5921 67.3993 43.9096 67.0818L47.0524 64.3199C46.9254 63.4945 46.862 62.6691 46.862 61.8437C46.862 61.0183 46.9254 60.1929 47.0524 59.3675L43.9096 56.6056C43.5921 56.2882 43.3699 55.9072 43.2429 55.4628C43.1159 55.0183 43.1794 54.6056 43.4334 54.2247L45.7191 50.4152C45.9731 50.0342 46.2905 49.7637 46.6715 49.6037C47.0524 49.4463 47.4651 49.431 47.9096 49.558L52.0048 50.7961C52.7032 50.2882 53.3864 49.859 54.0543 49.5085C54.7197 49.1606 55.4334 48.8279 56.1953 48.5104L57.0524 44.3199C57.1794 43.8755 57.3851 43.511 57.6696 43.2266C57.9566 42.9396 58.354 42.7961 58.862 42.7961H63.4334C63.9413 42.7961 64.3388 42.9396 64.6258 43.2266C64.9102 43.511 65.1159 43.8755 65.2429 44.3199L66.1001 48.5104C66.862 48.8279 67.5921 49.1923 68.2905 49.6037C68.9889 50.0177 69.6556 50.4787 70.2905 50.9866L74.2905 49.558C74.735 49.431 75.1642 49.4463 75.5781 49.6037C75.9896 49.7637 76.3223 50.0342 76.5762 50.4152L78.862 54.4152C79.1159 54.7961 79.1959 55.2088 79.102 55.6533C79.0054 56.0977 78.7985 56.4787 78.481 56.7961L75.2429 59.558C75.3699 60.3834 75.4334 61.1771 75.4334 61.939C75.4334 62.7009 75.3699 63.4945 75.2429 64.3199L78.3858 67.0818C78.7032 67.3993 78.9254 67.7802 79.0524 68.2247C79.1794 68.6691 79.1159 69.0818 78.862 69.4628L76.5762 73.2723C76.3223 73.6533 76.0048 73.9225 75.6239 74.0799C75.2429 74.2399 74.8302 74.2564 74.3858 74.1295L70.2905 72.8914C69.5921 73.3993 68.9102 73.8285 68.2448 74.179C67.5769 74.5269 66.862 74.8596 66.1001 75.1771L65.2429 79.3675C65.1159 79.812 64.9102 80.1764 64.6258 80.4609C64.3388 80.7479 63.9413 80.8914 63.4334 80.8914H58.862C58.354 80.8914 57.9566 80.7479 57.6696 80.4609C57.3851 80.1764 57.1794 79.812 57.0524 79.3675L56.1953 75.1771ZM61.1477 69.4628C63.2429 69.4628 65.0372 68.7174 66.5305 67.2266C68.0213 65.7333 68.7667 63.939 68.7667 61.8437C68.7667 59.7485 68.0213 57.9542 66.5305 56.4609C65.0372 54.9701 63.2429 54.2247 61.1477 54.2247C59.0524 54.2247 57.2581 54.9701 55.7648 56.4609C54.274 57.9542 53.5286 59.7485 53.5286 61.8437C53.5286 63.939 54.274 65.7333 55.7648 67.2266C57.2581 68.7174 59.0524 69.4628 61.1477 69.4628Z" fill="white"/>
</svg>
