<svg width="56" height="56" viewBox="0 0 56 56" fill="none" xmlns="http://www.w3.org/2000/svg">
<path d="M24 0C30.6667 0 36.3333 2.33333 41 7C45.6667 11.6667 48 17.3333 48 24H42.6667C42.6667 18.8 40.8551 14.3884 37.232 10.7653C33.6107 7.144 29.2 5.33333 24 5.33333C20.9333 5.33333 18.0667 6.04445 15.4 7.46667C12.7333 8.88889 10.4889 10.8444 8.66667 13.3333H13.3333C14.0889 13.3333 14.7227 13.5884 15.2347 14.0987C15.7449 14.6107 16 15.2444 16 16C16 16.7556 15.7449 17.3884 15.2347 17.8987C14.7227 18.4107 14.0889 18.6667 13.3333 18.6667H2.66667C1.91111 18.6667 1.27822 18.4107 0.768 17.8987C0.256 17.3884 0 16.7556 0 16V5.33333C0 4.57778 0.256 3.944 0.768 3.432C1.27822 2.92178 1.91111 2.66667 2.66667 2.66667C3.42222 2.66667 4.056 2.92178 4.568 3.432C5.07822 3.944 5.33333 4.57778 5.33333 5.33333V8.93333C7.6 6.08889 10.3671 3.88889 13.6347 2.33333C16.9004 0.777778 20.3556 0 24 0ZM27.6 31.3333L22.1333 25.8667C21.8667 25.6 21.6667 25.2996 21.5333 24.9653C21.4 24.6329 21.3333 24.2889 21.3333 23.9333V13.3333C21.3333 12.5778 21.5893 11.944 22.1013 11.432C22.6116 10.9218 23.2444 10.6667 24 10.6667C24.7556 10.6667 25.3893 10.9218 25.9013 11.432C26.4116 11.944 26.6667 12.5778 26.6667 13.3333V22.9333L30.4 26.6667L27.6 31.3333ZM24.2 48C18.5111 48 13.456 46.2889 9.03467 42.8667C4.61156 39.4444 1.84444 35.3556 0.733334 30.6C0.511111 29.8 0.589333 29.0444 0.968 28.3333C1.34489 27.6222 1.93333 27.1778 2.73333 27C3.48889 26.8222 4.16622 26.9884 4.76533 27.4987C5.36622 28.0107 5.77778 28.6444 6 29.4C6.93333 32.6889 8.76622 35.5218 11.4987 37.8987C14.2329 40.2773 17.4 41.7778 21 42.4L24.2 48ZM39.1333 52C38.6 51.7778 38.1004 51.5449 37.6347 51.3013C37.1671 51.056 36.6889 50.7556 36.2 50.4L33.3333 51.2667C33.0222 51.3556 32.7333 51.344 32.4667 51.232C32.2 51.1218 31.9778 50.9333 31.8 50.6667L30.2 48C30.0222 47.7333 29.9778 47.4444 30.0667 47.1333C30.1556 46.8222 30.3111 46.5556 30.5333 46.3333L32.7333 44.4C32.6444 43.8222 32.6 43.2444 32.6 42.6667C32.6 42.0889 32.6444 41.5111 32.7333 40.9333L30.5333 39C30.3111 38.7778 30.1556 38.5111 30.0667 38.2C29.9778 37.8889 30.0222 37.6 30.2 37.3333L31.8 34.6667C31.9778 34.4 32.2 34.2107 32.4667 34.0987C32.7333 33.9884 33.0222 33.9778 33.3333 34.0667L36.2 34.9333C36.6889 34.5778 37.1671 34.2773 37.6347 34.032C38.1004 33.7884 38.6 33.5556 39.1333 33.3333L39.7333 30.4C39.8222 30.0889 39.9662 29.8338 40.1653 29.6347C40.3662 29.4338 40.6444 29.3333 41 29.3333H44.2C44.5556 29.3333 44.8338 29.4338 45.0347 29.6347C45.2338 29.8338 45.3778 30.0889 45.4667 30.4L46.0667 33.3333C46.6 33.5556 47.1111 33.8107 47.6 34.0987C48.0889 34.3884 48.5556 34.7111 49 35.0667L51.8 34.0667C52.1111 33.9778 52.4116 33.9884 52.7013 34.0987C52.9893 34.2107 53.2222 34.4 53.4 34.6667L55 37.4667C55.1778 37.7333 55.2338 38.0222 55.168 38.3333C55.1004 38.6444 54.9556 38.9111 54.7333 39.1333L52.4667 41.0667C52.5555 41.6444 52.6 42.2 52.6 42.7333C52.6 43.2667 52.5555 43.8222 52.4667 44.4L54.6667 46.3333C54.8889 46.5556 55.0444 46.8222 55.1333 47.1333C55.2222 47.4444 55.1778 47.7333 55 48L53.4 50.6667C53.2222 50.9333 53 51.1218 52.7333 51.232C52.4667 51.344 52.1778 51.3556 51.8667 51.2667L49 50.4C48.5111 50.7556 48.0338 51.056 47.568 51.3013C47.1004 51.5449 46.6 51.7778 46.0667 52L45.4667 54.9333C45.3778 55.2444 45.2338 55.4996 45.0347 55.6987C44.8338 55.8996 44.5556 56 44.2 56H41C40.6444 56 40.3662 55.8996 40.1653 55.6987C39.9662 55.4996 39.8222 55.2444 39.7333 54.9333L39.1333 52ZM42.6 48C44.0667 48 45.3227 47.4782 46.368 46.4347C47.4116 45.3893 47.9333 44.1333 47.9333 42.6667C47.9333 41.2 47.4116 39.944 46.368 38.8987C45.3227 37.8551 44.0667 37.3333 42.6 37.3333C41.1333 37.3333 39.8773 37.8551 38.832 38.8987C37.7884 39.944 37.2667 41.2 37.2667 42.6667C37.2667 44.1333 37.7884 45.3893 38.832 46.4347C39.8773 47.4782 41.1333 48 42.6 48Z" fill="#1976D2"/>
</svg>
